<?xml version="1.0" standalone="no"?><!DOCTYPE svg PUBLIC "-//W3C//DTD SVG 1.1//EN" "http://www.w3.org/Graphics/SVG/1.1/DTD/svg11.dtd"><svg t="1686209254794" class="icon" viewBox="0 0 1024 1024" version="1.1" xmlns="http://www.w3.org/2000/svg" p-id="1841" xmlns:xlink="http://www.w3.org/1999/xlink" width="200" height="200"><path d="M919.264 905.984L780.352 767.072C851.808 692.32 896 591.328 896 480c0-229.376-186.624-416-416-416S64 250.624 64 480s186.624 416 416 416c95.008 0 182.432-32.384 252.544-86.208l141.44 141.44a31.904 31.904 0 0 0 45.248 0 32 32 0 0 0 0.032-45.248zM128 480c0-194.08 157.92-352 352-352s352 157.92 352 352-157.92 352-352 352-352-157.92-352-352z" fill="currentColor" p-id="1842"></path><path d="M625.792 448H512V336a32 32 0 0 0-64 0v112H336a32 32 0 0 0 0 64h112v112a32 32 0 1 0 64 0V512h113.792a32 32 0 1 0 0-64z" fill="currentColor" p-id="1843"></path></svg>