<?xml version="1.0" standalone="no"?>
<!DOCTYPE svg PUBLIC "-//W3C//DTD SVG 1.1//EN" "http://www.w3.org/Graphics/SVG/1.1/DTD/svg11.dtd">
<svg t="1686209283691" class="icon" viewBox="0 0 1024 1024" version="1.1" 
xmlns="http://www.w3.org/2000/svg" p-id="2298" xmlns:xlink="http://www.w3.org/1999/xlink" 
width="100%" height="100%">
<path d="M723.8 1023H304.6c-75.9 0-137.6-61.7-137.6-137.6v-528c0-21 17-38 38-38s38 17 38 38v528c0 34 27.6 61.6 61.6 61.6h419.2c34 0 61.6-27.6 61.6-61.6v-528c0-21 17-38 38-38s38 17 38 38v528c0 75.9-61.8 137.6-137.6 137.6zM919.1 281H104c-21 0-38-17-38-38s17-38 38-38h815.1c21 0 38 17 38 38s-17 38-38 38z" fill="currentColor" p-id="2299">
</path><path d="M405 820c-21 0-38-17-38-38V492c0-21 17-38 38-38s38 17 38 38v290c0 21-17 38-38 38zM619.2 821c-21 0-38-17-38-38V493c0-21 17-38 38-38s38 17 38 38v290c0 21-17 38-38 38zM287.2 275.9h-0.4c-21-0.2-37.8-17.4-37.6-38.4l1.1-92c0.1-76 64.3-137.7 143.3-137.7h241c79 0 143.3 61.9 143.3 137.9v0.4l-1.1 92.2c-0.2 20.8-17.2 37.6-38 37.6h-0.4c-21-0.2-37.8-17.4-37.6-38.4l1.1-92c-0.1-34-30.3-61.7-67.3-61.7h-241c-37.1 0-67.3 27.8-67.3 61.9v0.4l-1.1 92.2c-0.2 20.9-17.2 37.6-38 37.6z" fill="currentColor" p-id="2300">
</path>
</svg>