<?xml version="1.0" standalone="no"?><!DOCTYPE svg PUBLIC "-//W3C//DTD SVG 1.1//EN" "http://www.w3.org/Graphics/SVG/1.1/DTD/svg11.dtd"><svg t="1686209266486" class="icon" viewBox="0 0 1024 1024" version="1.1" xmlns="http://www.w3.org/2000/svg" p-id="1996" xmlns:xlink="http://www.w3.org/1999/xlink" width="200" height="200"><path d="M693.312 336H202.656A106.656 106.656 0 0 0 96 442.656v330.688A106.656 106.656 0 0 0 202.656 880h490.656A106.656 106.656 0 0 0 800 773.344V442.656a106.656 106.656 0 0 0-106.688-106.656z m-490.656 64h490.656c23.584 0 42.688 19.104 42.688 42.656v330.688c0 23.552-19.104 42.656-42.688 42.656H202.656A42.656 42.656 0 0 1 160 773.344V442.656c0-23.552 19.104-42.656 42.656-42.656z" fill="currentColor" p-id="1997"></path><path d="M926.4 418.912c-64-191.2-200.128-284.256-401.216-274.176a32 32 0 0 0-27.552 45.152l4.928 8.64 47.968 79.68c16.064 26.72 54.4 16.64 59.232-12.864l9.088-52.672c118.176 18.208 198.08 89.504 243.36 216.416l3.52 10.144a32 32 0 0 0 60.672-20.32z" fill="currentColor" p-id="1998"></path></svg>