<?xml version="1.0" standalone="no"?><!DOCTYPE svg PUBLIC "-//W3C//DTD SVG 1.1//EN" "http://www.w3.org/Graphics/SVG/1.1/DTD/svg11.dtd"><svg t="1686209274135" class="icon" viewBox="0 0 1024 1024" version="1.1" xmlns="http://www.w3.org/2000/svg" p-id="2147" xmlns:xlink="http://www.w3.org/1999/xlink" width="200" height="200"><path d="M821.344 336H330.656A106.656 106.656 0 0 0 224 442.656v330.688a106.656 106.656 0 0 0 106.656 106.656h490.688A106.656 106.656 0 0 0 928 773.344V442.656a106.656 106.656 0 0 0-106.656-106.656z m-490.688 64h490.688c23.552 0 42.656 19.104 42.656 42.656v330.688c0 23.552-19.104 42.656-42.656 42.656H330.656A42.656 42.656 0 0 1 288 773.344V442.656c0-23.552 19.104-42.656 42.656-42.656z" fill="currentColor" p-id="2148"></path><path d="M97.664 418.912c64-191.2 200.128-284.256 401.216-274.176a32 32 0 0 1 27.552 45.152l-4.928 8.64-47.968 79.68c-16.064 26.72-54.4 16.64-59.2-12.864l-9.12-52.672c-118.176 18.208-198.08 89.504-243.36 216.416l-3.52 10.144a32 32 0 0 1-60.672-20.32z" fill="currentColor" p-id="2149"></path></svg>